<svg xmlns="http://www.w3.org/2000/svg" width="141.396" height="40.889" viewBox="0 0 141.396 40.889">
  <g id="apple-itunes" transform="translate(0)">
    <path id="Path_3" data-name="Path 3" d="M7139.479,7205.713a29.206,29.206,0,0,1-2.657,4.959c-1.725,2.628-4.157,5.9-7.17,5.926-2.679.024-3.368-1.742-7-1.724s-4.392,1.754-7.069,1.729c-3.014-.027-5.318-2.98-7.045-5.606-4.824-7.344-5.329-15.963-2.354-20.543a10.678,10.678,0,0,1,8.589-5.16c3.195,0,5.2,1.75,7.842,1.75,2.562,0,4.122-1.753,7.816-1.753a10.437,10.437,0,0,1,7.856,4.145C7131.38,7193.221,7132.5,7203.077,7139.479,7205.713Z" transform="translate(-7104.334 -7175.718)" fill="#eee"/>
    <path id="Path_4" data-name="Path 4" d="M7133.593,7178.975a8.963,8.963,0,0,0,1.991-6.638,9.684,9.684,0,0,0-6.253,3.363,8.326,8.326,0,0,0-2.044,6.476A8.18,8.18,0,0,0,7133.593,7178.975Z" transform="translate(-7110.3 -7172.337)" fill="#eee"/>
    <g id="Group_2" data-name="Group 2" transform="translate(41.679 15.593)">
      <path id="Path_5" data-name="Path 5" d="M7166.446,7196.167a2.706,2.706,0,0,1-2.91,2.7,2.715,2.715,0,1,1,.035-5.425A2.7,2.7,0,0,1,7166.446,7196.167Zm-5.569,22.173v-17.349h5.393v17.349Zm14.508-19.37h-6.42v-4.541h18.375v4.541h-6.527v19.37h-5.43Zm29.088,13.8c0,2.27.072,4.114.141,5.57h-4.682l-.249-2.448h-.108a6.191,6.191,0,0,1-5.429,2.839c-3.513,0-6.1-2.2-6.1-7.558v-10.18h5.428v9.33c0,2.519.816,4.043,2.7,4.043a2.9,2.9,0,0,0,2.7-1.879,3.036,3.036,0,0,0,.175-1.17v-10.323h5.429v11.777h0Zm4.326-6.246c0-2.166-.071-4.01-.141-5.533h4.683l.248,2.377h.108a6.347,6.347,0,0,1,5.356-2.767c3.548,0,6.206,2.341,6.206,7.449v10.288h-5.391v-9.614c0-2.233-.781-3.76-2.73-3.76a2.877,2.877,0,0,0-2.73,2.02,3.859,3.859,0,0,0-.212,1.348v10H7208.8v-11.812h0Zm24.938,4.862c.178,2.234,2.377,3.3,4.9,3.3a15.287,15.287,0,0,0,4.788-.708l.71,3.652a17.094,17.094,0,0,1-6.28,1.1c-5.89,0-9.258-3.44-9.258-8.869,0-4.4,2.731-9.257,8.761-9.257,5.606,0,7.734,4.361,7.734,8.656a13.112,13.112,0,0,1-.176,2.127h-11.175Zm6.35-3.691c0-1.311-.569-3.512-3.051-3.512-2.27,0-3.192,2.057-3.336,3.512Zm8.193,5.926a10.578,10.578,0,0,0,4.647,1.311c1.633,0,2.307-.569,2.307-1.455s-.533-1.312-2.555-1.987c-3.583-1.205-4.967-3.156-4.931-5.179,0-3.263,2.767-5.712,7.061-5.712a11.625,11.625,0,0,1,4.9.995l-.958,3.726a8.511,8.511,0,0,0-3.76-1c-1.311,0-2.058.533-2.058,1.419,0,.817.674,1.243,2.8,1.987,3.3,1.134,4.683,2.8,4.718,5.356,0,3.229-2.554,5.641-7.521,5.641a12.249,12.249,0,0,1-5.605-1.244l.957-3.863Z" transform="translate(-7160.732 -7193.437)" fill="#eee"/>
    </g>
  </g>
</svg>
