<svg id="play" xmlns="http://www.w3.org/2000/svg" width="66.756" height="66.756" viewBox="0 0 66.756 66.756">
  <path id="Path_7" data-name="Path 7" d="M48.216,30.883,23.739,14.194A1.112,1.112,0,0,0,22,15.113V48.491a1.112,1.112,0,0,0,1.739.919L48.216,32.721a1.112,1.112,0,0,0,0-1.838Zm-23.991,15.5V17.219L45.615,31.8Z" transform="translate(2.477 1.576)" fill="#eee"/>
  <path id="Path_8" data-name="Path 8" d="M33.378,0A33.378,33.378,0,1,0,66.756,33.378,33.416,33.416,0,0,0,33.378,0Zm0,64.531A31.153,31.153,0,1,1,64.531,33.378,31.188,31.188,0,0,1,33.378,64.531Z" fill="#eee"/>
</svg>
