<svg xmlns="http://www.w3.org/2000/svg" width="52.273" height="52.273" viewBox="0 0 52.273 52.273">
  <g id="Group_6" data-name="Group 6" transform="translate(-491 -945.79)">
    <g id="Group_5" data-name="Group 5" transform="translate(1038.273 1489.063) rotate(180)">
      <g id="play" transform="translate(640 187)">
        <path id="Path_7" data-name="Path 7" d="M42.528,27.22,23.362,14.152a.871.871,0,0,0-1.362.72V41.008a.871.871,0,0,0,1.362.72L42.528,28.659a.87.87,0,0,0,0-1.439ZM23.742,39.358V16.52L40.491,27.939Z" transform="translate(-151.311 302.197)" fill="#eee"/>
        <path id="Path_8" data-name="Path 8" d="M26.136,0A26.136,26.136,0,1,0,52.273,26.136,26.166,26.166,0,0,0,26.136,0Zm0,50.53A24.394,24.394,0,1,1,50.53,26.136,24.422,24.422,0,0,1,26.136,50.53Z" transform="translate(-145 304)" fill="#eee"/>
        <path id="Path_9" data-name="Path 9" d="M0,0V27.824" transform="translate(-108.43 316.224)" fill="none" stroke="#eee" stroke-linecap="round" stroke-width="1.5"/>
      </g>
    </g>
  </g>
</svg>
